<?xml version="1.0" encoding="utf-8"?>
<!-- Generator: Adobe Illustrator 17.0.0, SVG Export Plug-In . SVG Version: 6.00 Build 0)  -->
<!DOCTYPE svg PUBLIC "-//W3C//DTD SVG 1.1//EN" "http://www.w3.org/Graphics/SVG/1.1/DTD/svg11.dtd">
<svg version="1.1" xmlns="http://www.w3.org/2000/svg" xmlns:xlink="http://www.w3.org/1999/xlink" x="0px" y="0px"
	 width="208.481px" height="227.151px" viewBox="0 0 208.481 227.151" enable-background="new 0 0 208.481 227.151"
	 xml:space="preserve">
<g id="Layer_2">
</g>
<g id="Layer_1">
	<g>
		<g>
			<g>
				<g opacity="0.2">
					<g>
						<path fill="#FFFFFF" d="M101.55,93.1l15.056-24.709l27.528-3.737l-2.11,29.145l-21.533,3.844L101.55,93.1z M35.376,79.738
							l20.051,1.791l0.064,0.258l0.054-0.069l12.211,25.471L35.376,79.738z M58.74,44.833l-4.186-3.541l12.222-6.502L58.74,44.833z
							 M144.738,64.748l37.254,11.138l-18.632,25.339L144.738,64.748z M144.496,65.149l18.515,36.265l-19.966-7.681l-0.209-0.077
							l-0.408,0.071L144.496,65.149z M116.734,67.937l4.694-26.977l0.14,0.018l0.944,0.941l10.653,0.464l1.097,0.133l8.14,18.063
							l1.658,3.684l-27.186,3.689l0.036-0.059L116.734,67.937z M65.783,84.049l19.329,8.12
							c-4.398,5.227-12.109,14.301-14.808,17.181l-0.852-0.722L65.783,84.049z M34.488,78.983V51.965l0.133-0.069l14.035,2.551
							l6.655,26.624l-0.087-0.02l0.028,0.061L34.85,79.291L34.488,78.983z M48.829,53.993l-0.393-0.423l0.112,0.454l-13.362-2.431
							l18.989-10.099l4.291,3.63L48.829,53.993z M105.418,26.371L70.89,44.402l-0.673-11.441l1.156-0.615l31.931-5.676
							L105.418,26.371z M85.533,92.345l0.041,0.015l0.013-0.056l13.347,1.37L71.13,109.038c3.472-3.804,11.635-13.467,13.89-16.145
							l-0.263,1L85.533,92.345z M93.446,60.799L90.9,70.501l-5.597,21.316l-19.372-8.135C68.821,81.426,89.87,63.797,93.446,60.799
							 M55.931,81.22l8.025-10.319l0.084,0.089l0.066-0.242l28.719-9.956L65.485,83.513l-7.115-1.709L55.931,81.22z M94.13,59.766
							l0.018-0.077l-0.176,0.148l-0.048-0.855l-0.247,0.941L79.5,50.391l-8.204-5.518l49.264-3.877L94.13,59.766z M93.67,61.506
							l0.714,12.12l-0.046,0.013l0.041,0.122l-8.26,16.523l5.01-19.097L93.67,61.506z M63.681,70.605l-8.002,10.291l-6.482-25.918
							L63.681,70.605z M69.046,52.82l0.066-0.291l0.036-0.128l-0.005-0.003l1.696-7.352l22.515,15.14L64.235,70.281l4.798-17.469
							L69.046,52.82z M100.448,92.834l-0.903,0.5L91.408,92.5l-5.663-0.582l8.809-17.614l5.931,18.54L100.448,92.834z
							 M106.497,26.257l14.319,14.319l-49.15,3.87L106.497,26.257z M58.783,45.376l5.842,4.24l3.867,2.804l-4.65,17.773L49.1,54.284
							l8.081-7.436L58.783,45.376z M108.39,70.062l-13.612,3.464l-0.707-12l-0.066-1.143l0.235-0.082l-0.092-0.061l26.836-19.058
							l-4.671,26.862L108.39,70.062z M134.713,42.547l42.014,1.944l-32.29,19.645l-0.952-2.112L134.713,42.547z M182.243,75.544
							l-37.407-11.181l32.344-19.681l5.337,30.492L182.243,75.544z M59.054,45.08l8.61-10.763l2.168-1.15l0.668,11.37l-0.375,0.031
							l0.357,0.24L68.6,52.006l-3.872-2.811L59.054,45.08z M68.5,107.819L55.944,81.633l9.413,2.26l3.635,24.344L68.5,107.819z
							 M116.063,68.519L101.142,93l-0.204-0.048l-6.092-19.033l13.604-3.462L116.063,68.519z M178.46,42.759l-55.262-2.403
							l-15.997-15.997l-36.231,6.444l-0.092,0.048l-0.778,0.11l-0.018-0.301l-0.276,0.342l-0.102,0.013l0.008,0.107l-0.482,0.605
							L32.896,51.009V79.72l36.545,30.984l0.467,0.972l-0.099-0.661l0.408,0.347l30.461-16.836l19.765,4.745l22.237-3.972
							l21.058,8.099l20.464-27.831L178.46,42.759z"/>
					</g>
				</g>
				<g opacity="0.2">
					<g>
						<path fill="#FFFFFF" d="M89.162,191.712l-4.418-1.656l5.196-8.084l3.931,5.617L89.162,191.712z M80.869,194.781v4.385
							l-5.135,1.709l-1.673-4.462l6.209-4.347l2.658-0.885L80.869,194.781z M74.588,187.404l4.008-1l-0.079,0.212l0.454-0.199
							l0.551,4.969l-5.492,3.844L74.588,187.404z M74.448,178.167l2.349-5.176l4.025,7.474l-1.804,4.814l-4.765,1.191l-4.65-4.066
							L74.448,178.167z M80.259,184.774l1.436-3.824l6.217,0.477L80.259,184.774z M83.777,189.695l-0.115,0.199l-3.191,1.066
							l-0.477-4.275l-0.074-0.684l8.704-3.809l-4.829,7.51L83.777,189.695z M90.517,181.075l0.704-1.097l-1.385,0.607l-8.166-0.628
							l-4.959-9.209l-2.995,6.747l-5.612,4.908l5.508,4.819l-0.622,8.737l-0.12,0.084l2.275,6.071l6.712-2.24v-4.832l2.36-4.13
							l5.15,1.931l5.821-5.094L90.517,181.075z"/>
					</g>
				</g>
			</g>
		</g>
		<g opacity="0.17">
			<g>
				<path fill="#FFFFFF" d="M161.484,159.335l-9-2l9.186-5.103l5.648,7.103H161.484z M143.316,162.997l7.722-4.824l1.93,7.72
					L143.316,162.997z M155.334,164.432l-1.531,1.315l-1.921-7.681l8.64,1.919L155.334,164.432z M158.667,148.479l2.168,3.252
					l-9.105,5.057v-8.95L158.667,148.479z M168.21,159.102l-8.363-10.52l16.476,1.394l-2.661,2.994L168.21,159.102z
					 M174.863,152.887l3.21-3.611l-0.772-0.063l-25.838-2.246l-0.578-0.055v0.004v10.064l-0.153-0.033l0.089,0.364l-9.535,5.958
					l11.92,3.577l0.107,0.43l2.161-1.854l6.119-5.243h6.394l0.185,0.233l0.207-0.233L174.863,152.887z"/>
			</g>
		</g>
		<g opacity="0.17">
			<g>
				<path fill="#FFFFFF" d="M124.207,128.981l2.914-2.914l-1.841,4.458l-1.838,2.277L124.207,128.981z M130.335,133.999l3.74-1.11
					l-3.234,4.852L130.335,133.999z M128.447,125.069l5.882,6.863l-4.386,1.304l-3.777-2.643L128.447,125.069z M125.899,135.748
					l-2.569-1.468l2.397-2.964l3.747,2.621l0.565,4.176L125.899,135.748z M131.011,139.006l4.591-6.887l-7.26-8.47l-4.913,4.918
					l-1.13,5.65l-0.246,0.305l3.321,1.897l5.33,3.047l0.401,0.229L131.011,139.006z"/>
			</g>
		</g>
		<g opacity="0.17">
			<g>
				<path fill="#FFFFFF" d="M116.675,165.011l1.282-7.703l3.252-3.308v5.57L116.675,165.011z M117.51,156.623l-6.651-5.184
					l9.918,1.804L117.51,156.623z M112.922,158.22l-2.641-6.161l6.377,4.972L112.922,158.22z M115.82,164.984l-2.565-5.986
					l3.762-1.195L115.82,164.984z M108.549,150.161l7.334,17.115l6.169-7.402v-7.258L108.549,150.161z"/>
			</g>
		</g>
	</g>
</g>
</svg>
