<svg xmlns="http://www.w3.org/2000/svg" version="1.1" xmlns:xlink="http://www.w3.org/1999/xlink" xmlns:svgjs="http://svgjs.com/svgjs" width="757.4219970703125" height="757.4219970703125"><svg xmlns="http://www.w3.org/2000/svg" xmlns:xlink="http://www.w3.org/1999/xlink" version="1.1" id="SvgjsSvg1000" x="0px" y="0px" width="757.4219970703125" height="757.4219970703125" viewBox="0 0 757.422 757.422" enable-background="new 0 0 757.422 757.422" xml:space="preserve">
<g>
	<path fill="#ABFF4F" d="M476.85,646.395l-87.817-241.474l101.31-21.947L476.85,646.395z M408.806,633.492l-42.124-110.633   c-1.066-2.804-4.212-4.222-7.016-3.146c-2.804,1.066-4.211,4.211-3.146,7.015l53.806,141.281L252.345,668l-45.424-138.032   l104.476-114.441l66.792-8.65l75.141,206.635L408.806,633.492z M208.721,570.198l29.179,88.655l-88.148-65.467L208.721,570.198z    M428.383,247.798l59.879,124.509L384.8,394.718l-27.11-54.623L428.383,247.798z M278.327,208.023l13.938-64.95l21.108,15.562   c0.104,0.072,0.196,0.155,0.3,0.217l108.098,79.705l-55.896,72.969L278.327,208.023z M334.637,122.503l67.257,87.9l-78.598-57.955   L334.637,122.503z M498.755,369.037l-58.41-121.425l105.625,41.565v58.69L498.755,369.037z M556.679,352.191   c0.041-0.269,0.165-0.517,0.165-0.797V286.6c0-0.207-0.104-0.393-0.124-0.59c0.227-2.37-1.024-4.667-3.332-5.588L432.822,232.98   l-95.505-124.829c-1.19-1.573-3.167-2.38-5.102-2.08c-1.945,0.29-3.59,1.614-4.294,3.456l-13.731,36.236l-22.257-16.431   c-1.479-1.086-3.435-1.335-5.153-0.714c-1.717,0.662-3,2.142-3.383,3.953l-16.266,75.783c-0.352,1.656,0.083,3.363,1.169,4.646   l90.808,107.374l-12.116,15.811c-1.252,1.635-1.47,3.86-0.549,5.722l27.11,54.623l-65.529,8.495   c-1.273,0.155-2.452,0.776-3.322,1.728L196.739,525.001c-1.324,1.438-1.749,3.497-1.139,5.36l9.716,29.521l-68.654,26.986   c-1.842,0.724-3.146,2.39-3.394,4.336c-0.269,1.966,0.559,3.901,2.131,5.08l109.774,81.526c0.011,0.01,0.031,0.021,0.031,0.031   c0.476,0.331,0.983,0.59,1.521,0.776c0.548,0.186,1.117,0.269,1.686,0.269l169.799,0.01c1.79,0,3.456-0.88,4.47-2.359   c1.024-1.469,1.242-3.342,0.61-5.008l-10.616-27.855l44.369-19.898l18.739,51.529c0.797,2.173,2.856,3.58,5.112,3.58   c0.259,0,0.528-0.021,0.807-0.062c2.546-0.393,4.48-2.514,4.615-5.101l15.076-293.955l52.109-23.354c0.01,0,0.02-0.01,0.031-0.021   l0.093-0.041c0.197-0.083,0.332-0.248,0.507-0.362c0.424-0.248,0.838-0.486,1.169-0.828c0.228-0.238,0.363-0.538,0.538-0.817   c0.207-0.3,0.445-0.579,0.58-0.921C556.585,353.009,556.616,352.605,556.679,352.191"></path>
</g>
</svg><style>@media (prefers-color-scheme: light) { :root { filter: none; } }
</style></svg>