<?xml version="1.0" encoding="utf-8"?>
<!-- Generator: Adobe Illustrator 18.0.0, SVG Export Plug-In . SVG Version: 6.00 Build 0)  -->
<!DOCTYPE svg PUBLIC "-//W3C//DTD SVG 1.1//EN" "http://www.w3.org/Graphics/SVG/1.1/DTD/svg11.dtd">
<svg version="1.1" id="Layer_1" xmlns="http://www.w3.org/2000/svg" xmlns:xlink="http://www.w3.org/1999/xlink" x="0px" y="0px"
	 viewBox="0 0 719.1 401.7" enable-background="new 0 0 719.1 401.7" xml:space="preserve">
<g>
	<linearGradient id="SVGID_1_" gradientUnits="userSpaceOnUse" x1="359.5271" y1="398.6973" x2="359.5271" y2="5.9688">
		<stop  offset="0" style="stop-color:#ABFF4F;stop-opacity:0"/>
		<stop  offset="0.3763" style="stop-color:#ABFF4F"/>
	</linearGradient>
	<path fill="url(#SVGID_1_)" d="M702.9,248.8l0-0.1l-35.1-40.1l-0.1-0.2l-56.7-16.2l-0.2-0.1L552,208.7l-0.3,0.1l-9.1,14.7l-33,10.8
		l-0.2,0.1l-11.6,13.2l0.1-0.5l-3.4-0.9l-1.8-13.4l-24-31.4l-0.1-0.2l-39.4-13.6l-44.2,4l-0.2,0l-16,10.9l0.8,1.2l15.6-10.6l0.8-0.1
		l-0.2,0.2l15.9,14.2l-30.2,6.8l0.1,0.5l30.1-6.8l-20.3,37.8l0.2,0.1l0,0.3l45.6,1.9l-21.3,29.5l-3.6-1.2l-5.7,1.5
		C372.4,249.6,344.4,121,341.5,107h3.4l0.5-2.8l0.5,0.2l3.3,5.5l2.1,14.3l7.7-2.9l-1.9-21V86.9l-3.1-11l-1.1-1l1.6-11.8l0-11.5
		L352,39.4L347.9,28l-6.6-11l-2.3-5h0.1V6h-8v6h2l-2.4,5.2L324.1,28l-4.7,11.5l-3.1,12.2l0,11.6l2,11.8l-1.2,0.8l-3.9,10.9l0,13.6
		l-1.1,21.1l8.2,2.8l2.3-14.3l3.3-5.5l0.7-0.3l0.8,2.9h1.9c-1.4,10-11.7,80.4-26.3,131l-14.5-21.5l-42.9-14.2l-0.2-0.1l-42.1,13.9
		l-5.5,7.3l-28.1-7l-0.1,0.3l-2.2-3.9l-58.8-16.6l-0.2-0.1l-56.7,16.2l-0.2,0.1l-35.1,40.2l-0.1,0.1L0.1,302.6L0,302.8l0.7,2.5
		l-0.3,0.4l0.5,0.4l14.7,55.6l1.7,1.6l-0.8,0.5l0.2,0.4l1-0.5l16.8,16.4l26.1,5.2l0.9,1.7l0.4-0.2l-0.7-1.3l0.7,0.1l0.3-1.5
		l-1.9-0.3L42.9,350h0.3v-70h-0.3l0,0.2l-0.1,0l45.8-29.1l-27.4,31.8l-0.1,0.1l-13.9,43.4l2.6,10.1l0.7-0.2l0.2,0.2l0.4-0.3l0.2,0
		l0-0.1l3.9-3.4l-0.2-0.2l0.2,0.2l29-25.9l47.9-19.2l47.1,20.7l0.2,0.8l0.5-0.1l-0.1-0.3l12.7,7.8l-4,20.3l0.7,0.1l0.1,0.2l0.2-0.1
		l0.4,0.1l0.1-0.3l23.2-13.7l31.1-13.7l31.5,14.4l13.9,10.6L276,354.5l-6.2,26.4l8.5,17.4l1.3-0.7l-8.3-16.9l5.2-22.3l3.5,27.5
		l-1.9,7.5l0.5,0.1l1.9-7.5l12.4-22.3l27.6-6.1l27.3-1.7l0-0.3l0,0.2l4.8-0.7l6.7,15.1l0.7-0.3l0.2,0.1l0.1-0.2l0.4-0.2l-0.2-0.5
		l11.3-43.5l31.3-13.8l-0.1-0.2l0.2-0.2l-19.4-19.1l38.3,0.2l-19,18.7l0.2,0.2l-0.1,0.2l31.1,14.6l-0.8,39.2L419.3,397l-1.1,0.3
		l0.1,0.5l-0.1,0.1l0.1,0.2l0.2,0.7l13.6-3.7l21.3-20l0.2-0.1l9.5-33.3l-0.2-0.8l2.7-0.4l29.1,12.7l16.7,15.5l0.4,1.2l0.7-0.2
		l0.1,0.1l0.2-0.2l1-0.3l-8.3-26.1l-14.1-15l2-2.4l2.3-12.9l3-14.1l0-17.3l-3.5-6.1l4.6-10.4l48.2-0.4l17.1,41.6l0,0l-1.6,49.2
		l-17.1,35.4l-9.6,1.1l0.2,1.5l21-2.4l27.6-24.5l12.8-41.2l0.1-0.2l-11.2-35.2l-19.8-26.2l0.1,0l13.4-45.8l38.2,32.7l-0.1,0.1
		l0.2,0.2l-45.7,20.4l0.2,0.5l46.2-20.6l55.6,23.1l0-0.1l0-0.1h-0.7v70h0.7l-18.5,36.1l-0.3,0l0.1,0.3l-0.1,0.3l0.2,0.1l0.1,0.7
		l27.2-5.4l0.2,0l18.8-18.5L719,299l0.1-0.2L702.9,248.8z M717.5,298.8l-0.3,1l-6.6,5.1l-34.4-30.9l25.6-23.3L717.5,298.8z
		 M620.2,250.5l29.4-33.2l26,56.3l-55.2-22.9L620.2,250.5z M609,194.2l1.7-0.5l0.3,0.1l37.7,22.8l-67,0.6L609,194.2z M581,217.2
		l-26.9-7.5l53.7-15.1L581,217.2z M649.6,216.5l-36.7-22.2l51.7,14.8L649.6,216.5z M701.5,249.4l0.3,0.9l-25.7,23.3l-25.9-56.1
		l50.8,32.7l0.3-0.4l-51.1-33l15.2-7.5l1.4,0.4L701.5,249.4z M552.7,210.1l0.4-0.1l27.3,7.6L532.8,242L552.7,210.1z M533.7,237.7
		l-2.1-3.6l5.8-7.4l4-1.3L533.7,237.7z M531.2,233.9l-16.2,0.2l21.5-7.1L531.2,233.9z M510.3,235.6l3.1-1l17.7-0.2l2.2,3.7l0.2-0.1
		l-3.3,5.3l-0.4,0.2l0.1,0.3l-2.1,3.4l-4.3-1.3l-0.2-0.1l-28.6,7.5L510.3,235.6z M564.1,355.8l20.2,10.1l-2.1,1.9l-34.9,22.8
		L564.1,355.8z M584.6,365.5l-20.2-10.1l25.3-25.9l-4.4,33.6L584.6,365.5z M564.2,354.8l1.6-48.3l23.9,22.3L564.2,354.8z
		 M590.3,328.9l6.6-3.1l-10.8,34.5L590.3,328.9z M566,305.9l20.3-15.1l0.5,1.6l3,35.7L566,305.9z M520.2,248.2l-20.4,16.2l-18.1-6.1
		L520.2,248.2z M521.4,247.9l1.4-0.4l24.9,16.5l-47.1,0.4L521.4,247.9z M562.2,258.8l22.3,29.4l-35.6-23.9l12.8-5.6L562.2,258.8z
		 M548.3,263.9l-24.8-16.4l37.3,10.9L548.3,263.9z M492.1,254l-13,3.4l-0.2,0.1l-2.5,3.1l-2.4-7.6l6-8.8l1.1-0.4l16.1,4.5L492.1,254
		z M496.9,298.4l-6.6-4.1l6.8-10.6v14.7L496.9,298.4z M494.9,352.5L466.2,340l9-9.9l0.9-0.1h14.2l13.5,14.2L494.9,352.5z
		 M301.5,335.9l14-14.1l1.3,0.1l15.6,9.1L301.5,335.9z M332.7,331.4l-12.2,25.5l-19.2-20.4L332.7,331.4z M300.8,336l-7.1-4.4
		l5.2-4.9l16-4.9L300.8,336z M320.1,357.2l-26.9,6l7.8-26.4L320.1,357.2z M333.2,331.7l14.3,23.8l-26.5,1.7L333.2,331.7z
		 M333.1,330.8L318,322l23.3,2L333.1,330.8z M315,320.3l-0.1,0l-10.6,3.3l-3.9-14.7l34.8,11.1v2h1v-2.3l6.5-2.5l-1,1.6l0.8,3.8
		L315,320.3z M179.6,307.9l-14.9-50.7l43.8,17.5l0.6,0.6L179.6,307.9z M108.5,199.3l28.3,23.9l-67-0.6L108.5,199.3z M203.8,227.1
		l24.6,35.6l-38.9-9.9l-0.5-0.5L203.8,227.1z M335.1,107v9.5l-2.8-1.3l1.3-8.1H335.1z M337.8,107l1,8.1l-2.7,1.3V107H337.8z
		 M332.2,115.6l2.9,1.4v19.5l-5.5-1.5L332.2,115.6z M338.8,115.6l2.5,19.1l-0.1,0.1l0.1,0.1l-0.1,0l-5.2,1.4V117L338.8,115.6z
		 M371.8,284.2l-2.9,0.8l-0.2,0.1l-0.8,0.7l-31.7,13v-29l28.8-9.4l9,23L371.8,284.2z M336.1,269.2v-28.5l21.7-4.4l6.8,23.5
		L336.1,269.2z M336.1,240.2v-25.7l17.6-3.8l3.9,25.1L336.1,240.2z M336.1,214v-26.7l12.5-3l5,25.9L336.1,214z M336.1,186.8v-26.4
		l8.3-2.3l4,25.7L336.1,186.8z M336.1,159.9v-23l5.3-1.4l2.8,22.2L336.1,159.9z M329.7,135.4l5.5,1.6v23l-8.5-2.4L329.7,135.4z
		 M326.7,158.1l8.5,2.4v26.4l-12.6-3.1L326.7,158.1z M322.5,184.3l12.6,3.1v26.7l-17.8-3.8L322.5,184.3z M317.3,210.7l17.8,3.9v25.7
		l-21.9-4.5L317.3,210.7z M313.2,236.3l21.9,4.5v28.6l-28.9-9.6L313.2,236.3z M306.2,260.3l28.9,9.6V299l-38.2-14.8L306.2,260.3z
		 M336.1,299.3l31-12.7l-17.5,20.1l-6.6,9.8l-6.9,2.7V299.3z M347.7,340.2l-4.4-21l6.5-10L347.7,340.2z M369.4,286.4l0.3-0.1l13.3,6
		l-11.4,32.8l-20.7-17.6L369.4,286.4z M370.5,286.1l30.1-7.8l-17.3,13.6L370.5,286.1z M374.5,283.5l-9-23.4l14.5-10.7
		c3.1,7.5,6.2,14.2,9.3,19.7l-14.2,14.3L374.5,283.5z M365.3,259.6l-6.9-23.4l12.7-10.7c2.8,8.3,5.7,16.3,8.6,23.5L365.3,259.6z
		 M358.3,235.6l-4-25l9.6-8c2.3,7.6,4.6,15.1,7,22.4L358.3,235.6z M354.2,210l-5.1-25.9l7.6-7.1c2.2,8.2,4.6,16.6,7,25L354.2,210z
		 M349.1,183.5l-4.1-25.6l5.6-4.9c1.8,7.4,3.9,15.3,6,23.4L349.1,183.5z M344.9,157.3l-2.9-22l0.1,0.1l3.2-4.3
		c1.5,6.3,3.2,13.6,5.1,21.4L344.9,157.3z M341.9,134.1l-2.4-18.8l1.8-2.5c0.9,4.2,2.2,10,3.8,17.1L341.9,134.1z M329.4,134.7
		l-2.5-1.8c1.3-8,2.3-14.6,3-19.3l2,1.7L329.4,134.7z M329.3,135.2l-2.9,22l-3.1-3.1c1.3-7.5,2.5-14.5,3.5-20.7L329.3,135.2z
		 M326.3,157.9l-4.1,25.6l-3.9-3.4c1.8-8.8,3.4-17.4,4.8-25.4L326.3,157.9z M322.2,184.1l-5.1,25.9l-4.4-3.3c2-8.7,3.9-17.4,5.6-26
		L322.2,184.1z M317,210.6l-4,25l-6.2-5.2c2-7.5,4-15.3,5.8-23.2L317,210.6z M312.9,236.1l-6.8,23.4L300,253
		c2.3-6.8,4.5-14.3,6.7-22.1L312.9,236.1z M299.8,253.5l6.1,6.5l-9.1,23.7l-5.9-8.5C294,269.3,297,261.9,299.8,253.5z M282.6,285.2
		l1.1,1c2.4-2.6,4.7-6.1,6.9-10.4l5.9,8.5l-5,10.4l-9.6-10.2l-0.1-0.1l-0.2-0.1l0.5-26.1l11.3,8
		C289.9,274.5,286.3,281.1,282.6,285.2z M265.6,289l14.8-3.1l-0.1-0.4l0.6,0.2l16.5,17.5l0.2,0.6L265.6,289z M257.6,276.3l24-18
		l-0.5,25.9L257.6,276.3z M265,288.6L265,288.6l0.1-0.7h-0.4l-14.4-12.8l30,10.2L265,288.6z M247.4,272.8l-8.8-28l42.7,13.1
		L257,276.1l-9.4-3.2L247.4,272.8z M238.8,244.3l25.2-20.4l17.4,33.5L238.8,244.3z M238.4,244l-9.1-27l34.2,6.6L238.4,244z
		 M216.7,242.2l21.1,2.4l-9,15.1L216.7,242.2z M228.9,260.1l0.1,0l9.1-15.1l8.5,28l-16.5,5.1v-15.9L228.9,260.1z M243.6,275.6
		l-17.3,12.2l-8.8-4L243.6,275.6z M226.6,287.8l18.5-12.9l2.2-0.6l1.7,0.4l14.8,13.2h-37L226.6,287.8z M264.3,289l-20,19.2
		L227.8,289H264.3z M264.6,224l36.3,14.8l-19,18.5L264.6,224z M263.4,223.1l-33.9-6.6l14.9-12.4l0.9-0.3l0.6,0.2L263.4,223.1z
		 M246.9,204.3l39.5,13.1l-22.2,5.8L246.9,204.3z M228.8,216.4l-22,0.1l36.3-12L228.8,216.4z M237.9,244.1l-21.6-2.5l-6.6-9.5
		l19-15.1L237.9,244.1z M63.3,282.8l42.4-24.4L84,306.1l-21.5-22.4L63.3,282.8z M141.7,238.7l-0.5-0.4l0.4,0.1L141.7,238.7z
		 M142.2,238.7l44,14.2l-22,3.7l-21.9-17.2L142.2,238.7z M140.5,236.5l-44.8,10.7l41.7-23.4l3.8,12.9L140.5,236.5z M139.3,238.3
		l-33.1,19.1l-12.7-8.2L139.3,238.3z M140.4,238.3l1.6,1.2l5.1,17.3l-39.8,0.7L140.4,238.3z M142.6,240.1l20.9,16.4l-16,0.3
		L142.6,240.1z M187.3,253.2l0.8,0.3l19.5,20.4l-42.4-17L187.3,253.2z M141.7,236.9l-3.8-12.9l47.2,24.3l1.8,3.2L141.7,236.9z
		 M136.6,223.7l-42.7,24l-1.8,0.4l-22.5-25L136.6,223.7z M92.9,249.5l12.8,8.3l-41.5,23.9l27.5-31.9L92.9,249.5z M62.3,284.2
		l21.4,22.3l-28.3,25.3l6.2-45.5L62.3,284.2z M106.3,258.2l25.4,29l-47.1,18.9L106.3,258.2z M106.8,258l40.4-0.7l3.5,12l-18.6,17.6
		L106.8,258z M147.7,257.3l15.9-0.3l-12.5,11.9L147.7,257.3z M190,253.5l38.1,9.8v15.5l-12.5,4l-0.1,0.1l-2.1,2.1l-3.3-10.3
		L190,253.5z M216.5,284l0.3-0.1l8.9,4.1l-27.3,14.4L216.5,284z M196.1,304.6l1-0.9l28.6-15.1l-12.9,33.7L196.1,304.6L196.1,304.6z
		 M226.1,288.5l0,0.2v0.3h1l16.8,19.7l-30.5,13.5L226.1,288.5z M265,289.5l10.6,33.4l-30.8-14L265,289.5z M265.5,289.5l31.8,14.8
		l-21.2,18.7L265.5,289.5z M291.9,295.1l4.9-10.5l38.3,14.9v19.9l-35-11.2l-1.4-5.8L291.9,295.1z M348,342.8l2.4-34.4l0.3-0.4
		l20.7,17.7l-23.1,18L348,342.8z M383.4,292.6l19.2,19l-30.5,13.5L383.4,292.6z M401.8,278l0.8-0.2l1.1,0.4l18.6,14.1l-38.4-0.2
		L401.8,278z M432.7,287.6l-9.5,4.6l-18-13.5L432.7,287.6z M434.1,288l18.2,23.3l-28.7-18.9l9.7-4.7L434.1,288z M453.3,312.6
		l0.7,0.9l-19.1,12.3l-11.2-32.7L453.3,312.6z M434.1,366l17.5,8.1l-31.6,22.5L434.1,366z M452.4,373.9l-18-8.3l21.1-21.1l-2.4,27.2
		L452.4,373.9z M434.3,365l0.7-38.3l20.4,17.1L434.3,365z M456,344l5.5-1.9l-7.7,27.1L456,344z M461.7,341.5l-5.8,2.1l-20.7-17.3
		l19-12.3L461.7,341.5L461.7,341.5z M461,333.4l13.3-3.3l-8.6,9.6l-3.6-2.3L461,333.4z M487.5,328l0.5-4.4l3.1,1.9l-2,2.4H487.5z
		 M487.6,323L487.6,323l-0.5,5h-11.1l-15.4,3.7l-5-18.5l0-0.2l-20.3-26l-0.1-0.2l-10.7-3.5l1.5-4.1l1-1l23.6-9.1l31.2,0.9l7.8,24.5
		L487.6,323z M429.8,189.2l23.2,23.8l-49.9-5.8l24.3-18.2l1.7-0.2L429.8,189.2z M450.3,268.8L450.3,268.8L450.3,268.8L450.3,268.8z
		 M450.3,268.4l-9.3-3.7l21.1-4.9L450.3,268.4z M464.9,257.1l-13.2,3.1l6.5-8.1l0.7-0.3l14.5,1.4l2.3,7.3l-10.6-3.3L464.9,257.1z
		 M473.5,252.7l-13.5-1.3l19-6.9L473.5,252.7z M457.3,250.8l-1.4,1.8l-27.4-5.1l25.2-33.6l13.1,33.5L457.3,250.8z M428,247.2
		l-25-39.4l50.2,5.8L428,247.2z M430.9,189.6l36.3,12.5l-13.5,10.9L430.9,189.6z M427.5,247.4l-45.2-1.8l20.2-37.6L427.5,247.4z
		 M455.5,253l-6.2,7.7l-10.9,2.5l-2.7,2.8l-7.4-18.1L455.5,253z M439.5,265.1l0.7-0.2l9.6,3.8l-22.2,8.6L439.5,265.1z M481.6,269.5
		l-30.6-0.9l12.4-9.1l1.4-0.3l11.7,3.7l0,0.1l0.2,0l10.4,3.2L481.6,269.5z M493,245.6l-12.1-3.4l-13.8,5l-13-33.3l37,19.3l0.1-0.2
		l0.1,0.2L493,245.6z M490.8,232.6l-36.7-19.2l13.7-11L490.8,232.6z M426.5,189.2l-24,17.9l-15.9-14.3L426.5,189.2z M427.9,248.2
		l7.4,18.3l-11.3,11.6l-1.6,4.5l-15.7-5.1L427.9,248.2z M376,283.1l13.5-13.6c1.9,3.4,3.9,6.3,5.8,8.6L376,283.1z M341.1,112.1
		l-1.7,2.5l-1.1-7.6h1.7C340.2,108,340.6,109.7,341.1,112.1z M355.6,87l0,13.4l1.5,19.6l-4.2,1.5l-1.8-12.3l-3.7-6.3l-5.1-2.8
		l-0.2,0.3l3.4-13.6l0.1,0l0.1-0.5l0,0l3.1-12.2l3.8,3L355.6,87z M337.4,101h-5l0.1-8h4.9L337.4,101z M328.4,93.4l3-0.6l-0.1,8.1
		l-1.3-0.7L328.4,93.4z M323.3,73.6l0.4-8.6h6.7h0l0,9h-0.3v0l-6.4,1l-0.2-1.2l0.1,0.1L323.3,73.6z M318.1,52.1l4.4-0.2l0.7,11.3
		l-0.1,0.5l-5-0.6V52.1z M326.7,30.4l4.1-0.4l-0.7,9.3V39l0,0l0,0h-0.9l-0.3,0.6l-5,0.6L326.7,30.4z M335.3,12h0.6l1,7.2l0,0.3
		l-3.7,0l0-0.2l0.5-3.9L335.3,12z M332.3,19.2L332,19l0.4-0.7L332.3,19.2L332.3,19.2z M333.2,19.8l3.8,0l1.1,9.2H332L333.2,19.8z
		 M345.1,30.4l2.7,9.9l-6.8-0.7l-0.3-0.6h-2l0.4,0.2l-0.5-9.2L345.1,30.4z M352.1,63l-3.7,0.8l0.5-11.8l3.2,0.2V63z M348.3,73.7
		L348.3,73.7l-0.5,1.3l-8.7-1.4V65h9.1l0.4,8.6L348.3,73.7L348.3,73.7z M332.5,85l-1.1-10h7l-1.1,10H332.5z M323.1,51.9l2.1,0.1
		l4.1,7h0.9v5h0.3h-6.7l0-0.5L323.1,51.9z M331.9,30h6.3l0.5,9h-0.6l0,0h-6.7L331.9,30z M339.7,41l4.6,8l-4.6,8h-9.3l-4.6-8l4.6-8
		H339.7z M348.2,64h-9.1v-5h1.7l4.1-7l3.9,0.3L348.2,64z M331.1,59h7v5h0.3h-7.3V59z M338.4,65L338.4,65l-0.2,9.7l-0.2-0.2V74h-7v-9
		H338.4z M338.1,85l1-10.5v-0.3l8.6,1.3l-2.6,10.7L338.1,85L338.1,85z M345.2,51.2l1.4-2.3l-5.2-8.6l6.6,0.5l0.8,10.6L345.2,51.2z
		 M323.9,40.8l4.8-0.5l-5.2,8.6l1.5,2.4l-1.8,0.1L323.9,40.8z M330.1,74.5V75h0.3l1.1,10.2l0,0l-4.9,1.1l-2.8-10.7L330.1,74.5z
		 M331.5,85.6l-0.1,6.6l-3.2,0.7l-1.5-6.2L331.5,85.6z M337.4,92h-4.9l0-6h4.8L337.4,92z M345,86.7l-1.6,6.3l-5-0.9l-0.1-6.5
		L345,86.7z M338.4,92.6l4.9,0.9l-1.7,6.6l-3.2,0.8L338.4,92.6z M349.5,72.2l-0.5,0.6l-0.4-8.6l3.8-0.8l-1.3,10L349.5,72.2z
		 M352.4,51.6l-3.3-0.2v0l0.1,0l-0.8-10.7l1.7-0.5L352.4,51.6z M350.1,39.8l-1.7,0.4l-2.8-10l0.7-0.7L350.1,39.8z M346.2,29
		l-0.7,0.7l-1.6-4.6l2.2,3.6L346.2,29z M342.7,23.1l2.3,6.8l-6.3-0.4l0-0.3l-1.1-9.3l2.6-1.1L342.7,23.1z M339.5,17.9l0.3,0.5
		l-2.4,1l0-0.3l-1-7.1h0.3L339.5,17.9z M333.1,8h4v2h-4V8z M331.7,19.4l0.5,0.3l-1.2,9.5l0,0.3l-4.1,0.4l2-5.8L331.7,19.4z
		 M327.7,26.1l-1.3,3.7l-0.6-0.6l0.1-0.2L327.7,26.1z M325.6,29.6l0.6,0.6l-2.7,10l-2-0.5L325.6,29.6z M321.3,40.2l2.1,0.6l-1,10.7
		l-0.3,0v0l-3.9,0.2L321.3,40.2z M318.4,63.6l4.8,0.6l-0.4,8.4l-0.4-0.5l-2.3,1.6L318.4,63.6z M324.5,102.9l-3.8,6.3l-1.9,12.3
		l-4.6-1.6l0.9-19.6V87.1l3.6-10l4.4-3l6.5,26.1L324.5,102.9z M328.5,103.1l2.2-1.2l-0.2-0.4l-0.3-0.8l1,0.6v0.6l0,0v3h1.3l0-3h5
		l0,3h1l0-3.4l3.1-0.8l-0.3,1.2l0.3,0.1l2.1,1.2l-0.3,1.8H329L328.5,103.1z M333.1,107l-1.1,7.8l-2-1.7c0.4-2.8,0.7-5.1,0.9-6.1
		H333.1z M293.6,265.8l-11.3-8l19.5-19l0.7,1.1C299.7,249.5,296.7,258.3,293.6,265.8z M301.5,238.3l-0.1,0.1l-36.5-14.9l22.4-5.9
		l0,0l0.3,0.1L301.5,238.3z M204.1,217.4l1.2-0.4l22.9-0.1l-18.7,14.8l-4.4-6.4l-5.8-1.4L204.1,217.4z M203.3,227l-14.5,24.9
		l-1.3-2.4l1.1,0.6l0.2-0.4l-1.8-0.9l-16.4-29.9L203.3,227z M52.3,213.8l56.1-16l58,16.3l18.3,33.4l-46.5-23.9l28.2-7.9l-0.1-0.5
		l-28.7,8l-28.9-24.4l-0.2,0.2l-0.1-0.2L69,222.6l-16.3-8l-0.2,0.4l16,7.9l-51.1,33l0.3,0.4l50.8-32.7l-25.9,56.1l-25.8-23.5
		l0.9-2.7L52.3,213.8z M16.5,256.7l25.8,23.4L7.9,311l-5.3-4.2l-1-4L16.5,256.7z M16.9,360.9L2.8,307.6l5,3.9l34.4,38.4l-23.6,12.7
		L16.9,360.9z M35.1,378.8L19,363l23.5-12.7l17.1,33.3L35.1,378.8z M42.6,350L42.6,350l0.2-0.1L42.6,350z M42.1,349.3L8,311.4
		l34.1-30.6V349.3z M43.2,279.4l25.9-56.1l22.5,25l-0.6,0.1l-1.2,1.4L43.2,279.4z M60.8,289l-5.9,42.9l-6-5.1l-0.1-0.4L60.8,289z
		 M49.1,327.7l5.6,4.8l-3.5,3L49.1,327.7z M132.6,287.2l18.5-17.6l0.2-0.1l0-0.1l12.9-12.2l14.9,50.4L132.6,287.2z M180,308.1
		l29.2-32.3l3.1,10.1l0.2-0.1l-17.7,18l-2.4,12L180,308.1z M196.2,305.2l16.5,17.5L190.1,336L196.2,305.2z M276.3,323.3l21.4-18.8
		l5,19.4l1.3-0.3l-6,1.8l-6.9,6.5l-1.3,1.9L276.3,323.3z M292.3,332.9l1-0.9l7.2,4.4l-7.9,26.8l-15.5-7.4l0.1-0.5L292.3,332.9z
		 M277.1,356.2l15.4,7.4l-12,21.6l-3.6-28.1L277.1,356.2z M348,355.4l-14.6-24.2l8.4-7l5.1,20.7l4.3,6.9l1.3,3L348,355.4z
		 M354.2,354.8l0-0.3l-0.1,0l-1.5-3.4l-4.2-6.7l-0.1-0.3l23-17.9l-11,42.3L354.2,354.8z M423,293l11.3,32.9l-30.4-14.1L423,293
		L423,293z M431.5,393.6l-10.6,2.9l31.1-22.1L431.5,393.6z M462.3,338.2l2.7,1.8l-2.2,0.3L462.3,338.2z M511.3,367.5l-15.9-14.7
		l8.6-8.2L511.3,367.5z M493.8,312.4l-2.2,12.4l-0.1,0.2l-3.3-2l1.9-28.1l6.7,4.1L493.8,312.4z M497.1,282.8l-7.2,11.1l-7.8-24.1
		l5.6-3.4l0.3,0l9.1,15.6V282.8z M489.2,264.7l-11.4-3.6l1.9-2.3l1-0.3l18.7,6.3l-4.5,10L489.2,264.7z M548.9,264.9l36.5,24.5
		l0.7,0.9l-20.5,15.3L548.9,264.9z M557.6,389.5l-9.5,1.1l31.5-20.6L557.6,389.5z M597.2,325l0,0.1l-6.9,3.2l-2.8-33.9L597.2,325z
		 M567.4,263.2l-4.3-5.7l-33.8-9.9l3-4.8l48.4-24.9L567.4,263.2z M581.8,217.7l67.3-0.6l-29.3,33.1L581.8,217.7z M710.2,305.3
		l-34.1,38v-68.6L710.2,305.3z M675.9,343.9L675.9,343.9L675.9,343.9L675.9,343.9z M684,374.8l-26.1,5.2l18.3-35.6l25.1,13.5
		L684,374.8z M702.1,356.9l-0.5,0.5l-25.2-13.6l34.4-38.4l6.2-4.8L702.1,356.9z"/>
	<linearGradient id="SVGID_2_" gradientUnits="userSpaceOnUse" x1="335.9287" y1="5.9688" x2="335.9287" y2="-8.154297e-002">
		<stop  offset="0" style="stop-color:#ABFF4F;stop-opacity:0"/>
		<stop  offset="0.3763" style="stop-color:#ABFF4F"/>
	</linearGradient>
	<polygon fill="url(#SVGID_2_)" points="335.9,-0.1 335.2,6 336.7,6 	"/>
</g>
</svg>
