<?xml version="1.0" standalone="no"?>
<!DOCTYPE svg PUBLIC "-//W3C//DTD SVG 1.1//EN" "http://www.w3.org/Graphics/SVG/1.1/DTD/svg11.dtd">
<svg xmlns="http://www.w3.org/2000/svg" id="Layer_1" data-name="Layer 1" viewBox="0 0 825 164" width="825" height="164"><defs><style>.cls-1{fill:#212121;}.cls-2{fill:#abff4f;}</style></defs><title>RetroRabbit-Logo</title><rect id="_Rectangle_" data-name="&lt;Rectangle&gt;" class="cls-1" width="825" height="164"/><g id="_Group_" data-name="&lt;Group&gt;"><path id="_Compound_Path_" data-name="&lt;Compound Path&gt;" class="cls-2" d="M522,96.55h19.79L531.85,74Zm21.38,3.62h-23l-4.07,9.16h-4.18l17.75-39.59h4l17.76,39.59h-4.18Z"/><path id="_Compound_Path_2" data-name="&lt;Compound Path&gt;" class="cls-2" d="M590.5,105.6h12.9c4.53,0,10.47-1.41,10.47-7s-5.44-7.7-10.19-7.7H590.5Zm0-18.32h13.18c4.75,0,9-1.93,9-6.74,0-5.31-4.42-7.12-9.28-7.12H590.5Zm12.9-17.54c7,0,13.23,3.06,13.23,10.86A8.8,8.8,0,0,1,610.41,89a10,10,0,0,1,7.41,9.61c0,8.2-7.29,10.69-14.42,10.69H586.55V69.74Z"/><path id="_Compound_Path_3" data-name="&lt;Compound Path&gt;" class="cls-2" d="M658.6,105.6h12.9c4.52,0,10.46-1.41,10.46-7s-5.43-7.7-10.18-7.7H658.6Zm0-18.32h13.18c4.75,0,9-1.93,9-6.74,0-5.31-4.41-7.12-9.27-7.12H658.6Zm12.9-17.54c7,0,13.23,3.06,13.23,10.86A8.8,8.8,0,0,1,678.51,89a10,10,0,0,1,7.41,9.61c0,8.2-7.3,10.69-14.42,10.69H654.64V69.74Z"/><rect id="_Path_" data-name="&lt;Path&gt;" class="cls-2" x="722.74" y="69.74" width="3.96" height="39.59"/><polygon id="_Path_2" data-name="&lt;Path&gt;" class="cls-2" points="761.37 69.74 761.37 73.47 775.34 73.47 775.34 109.33 779.3 109.33 779.3 73.47 793.27 73.47 793.27 69.74 761.37 69.74"/><g id="_Group_2" data-name="&lt;Group&gt;"><path id="_Compound_Path_4" data-name="&lt;Compound Path&gt;" class="cls-2" d="M452,98.07V94.36h16.12C475.72,93.54,479,88.18,479,82.3c-.06-6.68-4.3-12.56-13.12-12.56H448.09v39.59h4V98.07Zm0-24.6h13.8c6.11,0,9.16,3.85,9.16,8.83S472,91,465.62,91H452.05Z"/><polygon id="_Path_3" data-name="&lt;Path&gt;" class="cls-2" points="470.32 98.07 465.28 98.07 475.41 109.33 480.56 109.33 470.32 98.07"/></g></g><g id="_Group_3" data-name="&lt;Group&gt;"><polygon id="_Path_4" data-name="&lt;Path&gt;" class="cls-2" points="126.73 107.86 98.34 107.86 98.34 68.27 126.22 68.27 126.22 72 102.3 72 102.3 86.2 125.15 86.2 125.15 89.88 102.3 89.88 102.3 104.13 126.73 104.13 126.73 107.86"/><polygon id="_Path_5" data-name="&lt;Path&gt;" class="cls-2" points="173.05 72 159.08 72 159.08 68.27 190.98 68.27 190.98 72 177.01 72 177.01 107.86 173.05 107.86 173.05 72"/><path id="_Compound_Path_5" data-name="&lt;Compound Path&gt;" class="cls-2" d="M311.51,104.86c10.8,0,16-8.2,16.06-16.68,0-8.88-5.26-16.8-16.06-16.85-10.64,0-16.23,7.52-16.12,16.85.11,8.65,5.32,16.68,16.12,16.68m20-16.68c-.06,10.35-6.62,20.42-20,20.42s-20.08-10.07-20.08-20.48c0-11.14,7.24-20.53,20.08-20.53,13.4.06,20.08,10,20,20.59"/><g id="_Group_4" data-name="&lt;Group&gt;"><path id="_Compound_Path_6" data-name="&lt;Compound Path&gt;" class="cls-2" d="M229.67,92.89h16c7.58-.82,10.89-6.18,10.83-12.06,0-6.68-4.3-12.56-13.12-12.56H225.65v39.59h4V93.27h.06ZM229.61,72h13.8c6.11,0,9.16,3.85,9.16,8.83s-3,8.71-9.39,8.71H229.61Z"/><polygon id="_Path_6" data-name="&lt;Path&gt;" class="cls-2" points="247.88 96.6 242.84 96.6 252.97 107.86 258.12 107.86 247.88 96.6"/></g><g id="_Group_5" data-name="&lt;Group&gt;"><path id="_Compound_Path_7" data-name="&lt;Compound Path&gt;" class="cls-2" d="M34,96.6V92.89h16.1c7.58-.82,10.89-6.18,10.83-12.06,0-6.68-4.29-12.56-13.12-12.56H30v39.59h4V96.6ZM34,72h13.8c6.11,0,9.17,3.85,9.17,8.83s-3.06,8.71-9.39,8.71H34Z"/><polygon id="_Path_7" data-name="&lt;Path&gt;" class="cls-2" points="52.24 96.6 47.2 96.6 57.33 107.86 62.48 107.86 52.24 96.6"/></g></g><g id="_Group_6" data-name="&lt;Group&gt;"><path id="_Compound_Path_8" data-name="&lt;Compound Path&gt;" class="cls-2" d="M427.25,32l-.72-2.12-1.82,1.3a101,101,0,0,1-13.33,8.06l-.5.25A103.52,103.52,0,0,1,387,48.5a16.36,16.36,0,0,0-12.5,15.23l0,.56.32.47A23.74,23.74,0,0,0,379,69.44c.09.08.2.15.3.23l2.94-1.91h0c-.37-.27-.73-.56-1.08-.86a20.91,20.91,0,0,1-3.29-3.55,13,13,0,0,1,9.91-11.61,107.11,107.11,0,0,0,24.64-9.32l.5-.25a105.74,105.74,0,0,0,11.74-6.91,10.52,10.52,0,0,1,0,3.07c-.66,4.05-3.73,6.59-4.88,7.55a15.13,15.13,0,0,1-8.09,3.36c-2.69.47-5.47,1-7.74,4-.36.49-.78,1.14-1.27,1.9a30.88,30.88,0,0,1-3.52,4.76,33,33,0,0,1-2.62,2.39c-.19.15-.65.51-1.23,1l-.83.69c-1.25,1-4.77,3.4-8.62,5.91L382.56,72c-5.05,3.24-9.74,6.18-9.83,6.24a24.26,24.26,0,0,0-5.6,4.49,23.48,23.48,0,0,0-3.95,6,53.92,53.92,0,0,0-4.81,17.88,10.31,10.31,0,1,0,9,18.42,22.25,22.25,0,0,0,10.28,2.42,38.61,38.61,0,0,0,11.35-2c2.47-.75,4.35-1.62,5.5-3.4a13.36,13.36,0,0,0,2-5.53l.07-.36a.49.49,0,0,1,.29-.35,2,2,0,0,1,1.41-.17c.56.19,1.41.48,1.31,2.65a7.12,7.12,0,0,0,4.62,7.06c2.44.87,5.92.39,7.55-1.93,1.11-1.58,5.77-29.07,3.83-51.57a62,62,0,0,0-5-18.94c.49-.11,1-.2,1.61-.3a18.49,18.49,0,0,0,9.64-4.09c1.42-1.17,5.19-4.3,6.05-9.58A14.49,14.49,0,0,0,427.25,32ZM361.9,123.76a7.52,7.52,0,0,1-3.56-14.15,18.15,18.15,0,0,0,3.9,11.23,16.87,16.87,0,0,0,2.46,2.38A7.67,7.67,0,0,1,361.9,123.76Zm5.65-2.56a14.88,14.88,0,0,1-2.76-2.51c-2.29-2.71-3.11-6.28-3.14-10h.25a7.52,7.52,0,0,1,5.65,12.49Zm44.72-49.14c1.86,21.54-2.54,47-3.33,49.48a3.7,3.7,0,0,1-3.61.59,3.79,3.79,0,0,1-2.42-3.76c.11-2.14-.43-4.92-3.58-6a5.24,5.24,0,0,0-4.13.45,3.86,3.86,0,0,0-1.89,2.58l-.07.37a9.92,9.92,0,0,1-1.53,4.36c-.45.7-1.22,1.28-3.66,2-4,1.2-11.09,3.35-18,.37a10.3,10.3,0,0,0-8.15-16.64h-.14a53.37,53.37,0,0,1,4.43-15.83,20.41,20.41,0,0,1,3.4-5.14A21.3,21.3,0,0,1,374.48,81c.77-.48,18.67-11.67,22.09-14.54l.77-.63c.56-.46,1-.81,1.27-1a38,38,0,0,0,2.83-2.58,34.32,34.32,0,0,0,4-5.32c.44-.68.83-1.29,1.15-1.72a6.63,6.63,0,0,1,1-1A58.63,58.63,0,0,1,412.27,72.06Z"/><circle id="_Path_8" data-name="&lt;Path&gt;" class="cls-2" cx="386.56" cy="58.54" r="1.91"/></g></svg>