<?xml version="1.0" encoding="utf-8"?>
<!-- Generator: Adobe Illustrator 17.0.0, SVG Export Plug-In . SVG Version: 6.00 Build 0)  -->
<!DOCTYPE svg PUBLIC "-//W3C//DTD SVG 1.1//EN" "http://www.w3.org/Graphics/SVG/1.1/DTD/svg11.dtd">
<svg version="1.1" xmlns="http://www.w3.org/2000/svg" xmlns:xlink="http://www.w3.org/1999/xlink" x="0px" y="0px"
	 width="709.524px" height="438.023px" viewBox="0 0 709.524 438.023" enable-background="new 0 0 709.524 438.023"
	 xml:space="preserve">
<g id="Layer_2">
</g>
<g id="Layer_1">
	<g>
		<g>
			<g opacity="0.4">
				<g>
					<path fill="#ABFF4F" d="M146.134,370.66l-7.118-2.667l8.371-13.026l6.334,9.053L146.134,370.66z M132.774,375.605v7.063
						l-8.276,2.758l-2.697-7.188l10.006-7.007l4.282-1.426L132.774,375.605z M122.652,363.718l6.457-1.612l-0.128,0.343l0.733-0.322
						l0.888,8.007l-8.851,6.195L122.652,363.718z M122.425,348.835l3.785-8.338l6.487,12.042l-2.906,7.756l-7.68,1.918l-7.489-6.55
						L122.425,348.835z M131.79,359.483l2.315-6.163l10.013,0.77L131.79,359.483z M137.457,367.411l-0.183,0.32l-5.144,1.716
						l-0.765-6.886l-0.121-1.099l14.023-6.137l-7.779,12.096L137.457,367.411z M148.314,353.522l1.134-1.765l-2.229,0.974
						l-13.156-1.011l-7.988-14.835l-4.831,10.869l-9.041,7.909l8.874,7.763l-1.002,14.079l-0.195,0.135l3.667,9.781l10.818-3.607
						v-7.786l3.801-6.654l8.297,3.113l9.377-8.208L148.314,353.522z"/>
				</g>
			</g>
			<g opacity="0.4">
				<g>
					<path fill="#ABFF4F" d="M67.089,316.695l5.49-5.492l-3.468,8.401l-3.463,4.289L67.089,316.695z M78.637,326.151l7.049-2.094
						l-6.095,9.145L78.637,326.151z M75.082,309.319l11.084,12.935l-8.264,2.459l-7.121-4.984L75.082,309.319z M70.278,329.447
						l-4.838-2.765l4.516-5.59l7.06,4.943l1.065,7.87L70.278,329.447z M79.913,335.586l8.654-12.979l-13.684-15.96l-9.259,9.264
						l-2.132,10.651l-0.464,0.575l6.262,3.577l10.043,5.743l0.756,0.429L79.913,335.586z"/>
				</g>
			</g>
			<g opacity="0.4">
				<g>
					<path fill="#ABFF4F" d="M52.891,384.592l2.421-14.517l6.126-6.23v10.495L52.891,384.592z M54.466,368.788l-12.534-9.769
						l18.694,3.398L54.466,368.788z M45.819,371.793l-4.977-11.609l12.019,9.37L45.819,371.793z M51.283,384.543l-4.834-11.279
						l7.09-2.254L51.283,384.543z M37.58,356.608l13.821,32.254l11.625-13.947v-13.68L37.58,356.608z"/>
				</g>
			</g>
		</g>
	</g>
	<g>
		<g>
			<g opacity="0.4">
				<g>
					<path fill="#ABFF4F" d="M209.688,268.269l7.542-0.952l-1.347,15.425l-9.82-5.064L209.688,268.269z M219.211,257.674
						l-3.287-6.251l6.041-6.292l5.733,5.106l-5.595,10.859l-3.126,3.255L219.211,257.674z M233.702,263.484l-4.965,4.432
						l-0.047-0.363l-0.499,0.626l-4.513-6.673l4.951-9.603L233.702,263.484z M240.83,276.552l0.53,9.142l-11.347-7.639l-1.038-8.217
						l5.904-5.272l9.677,2.312L240.83,276.552z M227.585,271.486l0.819,6.532l-9.221,3.979L227.585,271.486z M218.88,267.106
						l0.013-0.369l3.754-3.913l3.882,5.739l0.618,0.917l-9.555,11.958l1.256-14.326L218.88,267.106z M215.734,284.452l-0.182,2.09
						l1.519-1.9l12.115-5.228l13.975,9.413l-0.782-11.868l4.321-11.208l-11.467-2.741l-5.666-12.927l0.11-0.21l-7.798-6.95
						l-7.896,8.227l3.624,6.892l-0.268,7.659l-8.792,1.106l-4.48,11.63L215.734,284.452z"/>
				</g>
			</g>
			<g opacity="0.4">
				<g>
					<path fill="#ABFF4F" d="M304.766,279.245l-2.303,7.416l-0.841-9.049l1.069-5.407L304.766,279.245z M290.143,276.25
						l-5.264,5.134l1.139-10.931L290.143,276.25z M301.124,289.493l-15.831-6.29l6.17-6.022l8.622,1.098L301.124,289.493z
						 M296.008,269.442l5.569,0.195l-1.395,7.049l-8.549-1.089l-4.605-6.47L296.008,269.442z M284.623,268.492l-1.619,15.516
						l19.54,7.757l3.884-12.509l-3.07-10.419l0.143-0.725l-7.207-0.251l-11.562-0.409l-0.869-0.028L284.623,268.492z"/>
				</g>
			</g>
			<g opacity="0.4">
				<g>
					<path fill="#ABFF4F" d="M285.732,212.541l4.613,13.976l-2.522,8.365l-4.885-9.289L285.732,212.541z M291.694,227.263
						l15.641,2.813l-18.128,5.693L291.694,227.263z M297.948,220.578l9.808,7.958l-14.999-2.7L297.948,220.578z M287.178,211.836
						l9.528,7.734l-5.226,5.295L287.178,211.836z M312.307,230.184l-27.244-22.115l-3.798,17.754l6.367,12.108L312.307,230.184z"/>
				</g>
			</g>
		</g>
	</g>
	<g>
		<g>
			<g opacity="0.4">
				<g>
					<path fill="#ABFF4F" d="M359.492,47.512l1.059,7.527l-15.442-1.128l4.925-9.89L359.492,47.512z M370.22,56.884l6.204-3.375
						l6.377,5.951l-5.025,5.805l-10.937-5.441l-3.299-3.079L370.22,56.884z M364.616,71.456l-4.502-4.902l0.362-0.052l-0.633-0.49
						l6.609-4.607l9.672,4.814L364.616,71.456z M351.651,78.769l-9.133,0.66l7.478-11.454l8.202-1.154l5.355,5.829l-2.174,9.709
						L351.651,78.769z M356.528,65.453l-6.52,0.912l-4.109-9.163L356.528,65.453z M360.784,56.687l0.369,0.008l3.966,3.699
						l-5.683,3.963l-0.908,0.631l-12.093-9.385l14.343,1.053L360.784,56.687z M343.395,53.787l-2.092-0.153l1.921,1.492
						l5.399,12.039l-9.214,14.106l11.856-0.95l11.268,4.162l2.578-11.505l12.846-5.848l0.211,0.107l6.839-7.895l-8.338-7.779
						l-6.84,3.721l-7.662-0.159l-1.231-8.775l-11.692-4.314L343.395,53.787z"/>
				</g>
			</g>
			<g opacity="0.4">
				<g>
					<path fill="#ABFF4F" d="M349.864,142.736l-7.448-2.198l9.037-0.969l5.422,0.992L349.864,142.736z M352.651,128.073
						l-5.208-5.191l10.946,0.984L352.651,128.073z M339.565,139.24l6.065-15.919l6.109,6.084l-0.975,8.637L339.565,139.24z
						 M359.541,133.84l-0.116,5.571l-7.068-1.295l0.968-8.564l6.404-4.696L359.541,133.84z M360.33,122.443l-15.537-1.399
						l-7.479,19.648l12.562,3.706l10.374-3.218l0.727,0.133l0.149-7.21l0.245-11.566l0.016-0.869L360.33,122.443z"/>
				</g>
			</g>
			<g opacity="0.4">
				<g>
					<path fill="#ABFF4F" d="M416.291,122.76l-13.909,4.811l-8.4-2.403l9.219-5.016L416.291,122.76z M401.655,128.929l-2.591,15.679
						l-5.949-18.045L401.655,128.929z M408.428,135.088l-7.818,9.92l2.487-15.036L408.428,135.088z M417.016,124.195l-7.598,9.636
						l-5.369-5.151L417.016,124.195z M399.027,149.582l21.727-27.555l-17.806-3.546l-12.017,6.538L399.027,149.582z"/>
				</g>
			</g>
		</g>
	</g>
	<g>
		<g>
			<g opacity="0.4">
				<g>
					<path fill="#ABFF4F" d="M623.403,190.962l2.667-7.118l13.026,8.371l-9.053,6.334L623.403,190.962z M618.458,177.602h-7.063
						l-2.758-8.276l7.188-2.697l7.007,10.006l1.426,4.282L618.458,177.602z M630.345,167.48l1.612,6.457l-0.343-0.128l0.322,0.733
						l-8.007,0.888l-6.195-8.851L630.345,167.48z M645.229,167.253l8.338,3.785l-12.042,6.487l-7.756-2.906l-1.918-7.68l6.55-7.489
						L645.229,167.253z M634.581,176.618l6.163,2.315l-0.77,10.013L634.581,176.618z M626.653,182.285l-0.32-0.183l-1.716-5.144
						l6.886-0.765l1.099-0.121l6.137,14.023l-12.096-7.779L626.653,182.285z M640.541,193.142l1.765,1.134l-0.974-2.229
						l1.011-13.156l14.835-7.988l-10.869-4.831l-7.909-9.041l-7.763,8.874l-14.079-1.002l-0.135-0.195l-9.781,3.667l3.607,10.818
						h7.786l6.654,3.801l-3.113,8.296l8.208,9.377L640.541,193.142z"/>
				</g>
			</g>
			<g opacity="0.4">
				<g>
					<path fill="#ABFF4F" d="M677.369,111.917l5.492,5.49l-8.401-3.468l-4.289-3.463L677.369,111.917z M667.912,123.465l2.094,7.049
						l-9.145-6.095L667.912,123.465z M684.744,119.91l-12.935,11.084l-2.459-8.264l4.984-7.121L684.744,119.91z M664.617,115.106
						l2.765-4.838l5.59,4.516l-4.943,7.06l-7.87,1.065L664.617,115.106z M658.477,124.741l12.979,8.654l15.96-13.684l-9.264-9.259
						l-10.651-2.132l-0.575-0.464l-3.577,6.262l-5.743,10.043l-0.429,0.756L658.477,124.741z"/>
				</g>
			</g>
			<g opacity="0.4">
				<g>
					<path fill="#ABFF4F" d="M609.472,97.719l14.517,2.421l6.23,6.126h-10.495L609.472,97.719z M625.276,99.294l9.769-12.534
						l-3.398,18.694L625.276,99.294z M622.27,90.647l11.609-4.977l-9.37,12.019L622.27,90.647z M609.52,96.112l11.279-4.834
						l2.254,7.09L609.52,96.112z M637.455,82.409L605.202,96.23l13.947,11.625h13.68L637.455,82.409z"/>
				</g>
			</g>
		</g>
	</g>
</g>
</svg>
