<svg id="Layer_1" data-name="Layer 1" xmlns="http://www.w3.org/2000/svg" viewBox="0 0 445 185"><defs><style>.cls-1{fill:#212121;}.cls-2{fill:#abff4f;}</style></defs><title>RetroRabbit-Logo</title><rect id="_Rectangle_" data-name="&lt;Rectangle&gt;" class="cls-1" width="445.12" height="185"/><g id="_Group_" data-name="&lt;Group&gt;"><g id="_Group_2" data-name="&lt;Group&gt;"><path id="_Compound_Path_" data-name="&lt;Compound Path&gt;" class="cls-2" d="M186.09,125h17.22l-8.61-19.57Zm18.59,3.15h-20l-3.54,8h-3.64L193,101.64h3.44l15.44,34.42h-3.64Z"/><path id="_Compound_Path_2" data-name="&lt;Compound Path&gt;" class="cls-2" d="M245.7,132.82h11.21c3.93,0,9.1-1.23,9.1-6.1s-4.72-6.69-8.85-6.69H245.7Zm0-15.94h11.46c4.13,0,7.81-1.67,7.81-5.85,0-4.62-3.83-6.2-8.06-6.2H245.7Zm11.21-15.24c6,0,11.51,2.65,11.51,9.44a7.67,7.67,0,0,1-5.41,7.33,8.71,8.71,0,0,1,6.44,8.36c0,7.13-6.34,9.29-12.54,9.29H242.26V101.64Z"/><path id="_Compound_Path_3" data-name="&lt;Compound Path&gt;" class="cls-2" d="M304.91,132.82h11.21c3.94,0,9.1-1.23,9.1-6.1S320.5,120,316.37,120H304.91Zm0-15.94h11.46c4.13,0,7.82-1.67,7.82-5.85,0-4.62-3.84-6.2-8.07-6.2H304.91Zm11.21-15.24c6.05,0,11.51,2.65,11.51,9.44a7.67,7.67,0,0,1-5.41,7.33,8.71,8.71,0,0,1,6.44,8.36c0,7.13-6.34,9.29-12.54,9.29H301.47V101.64Z"/><rect id="_Path_" data-name="&lt;Path&gt;" class="cls-2" x="360.68" y="101.64" width="3.44" height="34.42"/><polygon id="_Path_2" data-name="&lt;Path&gt;" class="cls-2" points="394.27 101.64 394.27 104.88 406.41 104.88 406.41 136.06 409.86 136.06 409.86 104.88 422 104.88 422 101.64 394.27 101.64"/><g id="_Group_3" data-name="&lt;Group&gt;"><path id="_Compound_Path_4" data-name="&lt;Compound Path&gt;" class="cls-2" d="M125.3,126.27V123h14c6.59-.71,9.47-5.37,9.42-10.49-.05-5.8-3.74-10.91-11.41-10.91H121.87v34.42h3.44v-9.79Zm0-21.39h12c5.31,0,8,3.35,8,7.67s-2.65,7.58-8.16,7.58h-11.8Z"/><polygon id="_Path_3" data-name="&lt;Path&gt;" class="cls-2" points="141.19 126.27 136.81 126.27 145.62 136.06 150.09 136.06 141.19 126.27"/></g></g><g id="_Group_4" data-name="&lt;Group&gt;"><polygon id="_Path_4" data-name="&lt;Path&gt;" class="cls-2" points="206.53 83.17 181.84 83.17 181.84 48.75 206.09 48.75 206.09 51.99 185.28 51.99 185.28 64.34 205.15 64.34 205.15 67.53 185.28 67.53 185.28 79.93 206.53 79.93 206.53 83.17"/><polygon id="_Path_5" data-name="&lt;Path&gt;" class="cls-2" points="246.81 51.99 234.66 51.99 234.66 48.75 262.4 48.75 262.4 51.99 250.25 51.99 250.25 83.17 246.81 83.17 246.81 51.99"/><path id="_Compound_Path_5" data-name="&lt;Compound Path&gt;" class="cls-2" d="M367.2,80.57c9.39,0,13.91-7.13,14-14.51,0-7.72-4.57-14.61-14-14.66s-14.12,6.54-14,14.66c.1,7.52,4.62,14.51,14,14.51m17.4-14.51c0,9-5.75,17.75-17.4,17.75S349.74,75.06,349.74,66c0-9.69,6.29-17.85,17.46-17.85,11.65.05,17.45,8.7,17.4,17.9"/><g id="_Group_5" data-name="&lt;Group&gt;"><path id="_Compound_Path_6" data-name="&lt;Compound Path&gt;" class="cls-2" d="M296,70.15H310c6.59-.71,9.46-5.37,9.41-10.49,0-5.8-3.73-10.91-11.4-10.91H292.54V83.17H296V70.48H296ZM296,52h12c5.31,0,8,3.35,8,7.67s-2.65,7.58-8.16,7.58H296Z"/><polygon id="_Path_6" data-name="&lt;Path&gt;" class="cls-2" points="311.87 73.38 307.49 73.38 316.3 83.17 320.77 83.17 311.87 73.38"/></g><g id="_Group_6" data-name="&lt;Group&gt;"><path id="_Compound_Path_7" data-name="&lt;Compound Path&gt;" class="cls-2" d="M125.86,73.38V70.15h14c6.59-.71,9.46-5.37,9.41-10.49,0-5.8-3.73-10.91-11.4-10.91H122.43V83.17h3.45V73.38Zm0-21.39h12c5.31,0,8,3.35,8,7.67s-2.65,7.58-8.16,7.58h-11.8Z"/><polygon id="_Path_7" data-name="&lt;Path&gt;" class="cls-2" points="141.76 73.38 137.38 73.38 146.19 83.17 150.66 83.17 141.76 73.38"/></g></g></g><g id="_Group_7" data-name="&lt;Group&gt;"><path id="_Compound_Path_8" data-name="&lt;Compound Path&gt;" class="cls-2" d="M89.1,53.08l-.63-1.84-1.58,1.13a88,88,0,0,1-11.59,7l-.43.22a90.8,90.8,0,0,1-20.81,7.87A14.22,14.22,0,0,0,43.2,80.71l0,.49.28.41a21.15,21.15,0,0,0,3.66,4.07l.26.2,2.55-1.66h0q-.48-.36-.93-.75a17.84,17.84,0,0,1-2.86-3.09,11.63,11.63,0,0,1,2.25-5.92,11.49,11.49,0,0,1,6.36-4.17,92.79,92.79,0,0,0,21.43-8.11L76.6,62a89.52,89.52,0,0,0,10.21-6,9.25,9.25,0,0,1,0,2.68,11.15,11.15,0,0,1-4.25,6.56,13.27,13.27,0,0,1-7,2.93c-2.34.4-4.76.82-6.73,3.48-.31.42-.68,1-1.1,1.65a27.4,27.4,0,0,1-3.06,4.14,28.12,28.12,0,0,1-2.28,2.08l-1.08.86-.71.6c-1.09.91-4.15,3-7.49,5.14l-2.81,1.81c-4.39,2.82-8.47,5.37-8.55,5.42a21.33,21.33,0,0,0-4.86,3.91,20.33,20.33,0,0,0-3.44,5.18,47,47,0,0,0-4.18,15.55,9,9,0,0,0,3.07,17.4A8.9,8.9,0,0,0,37,134a19.3,19.3,0,0,0,8.94,2.1,33.92,33.92,0,0,0,9.87-1.75c2.14-.65,3.78-1.41,4.78-3a11.47,11.47,0,0,0,1.74-4.81l.06-.31a.44.44,0,0,1,.26-.3,1.78,1.78,0,0,1,1.22-.15c.49.17,1.23.41,1.13,2.3a6.21,6.21,0,0,0,4,6.14c2.12.76,5.15.34,6.56-1.68,1-1.37,5-25.28,3.33-44.83a53.77,53.77,0,0,0-4.37-16.48L76,71a16,16,0,0,0,8.38-3.55,13.8,13.8,0,0,0,5.26-8.33A12.63,12.63,0,0,0,89.1,53.08ZM32.28,132.91a6.54,6.54,0,0,1-3.1-12.31,15.81,15.81,0,0,0,3.39,9.77,15.11,15.11,0,0,0,2.14,2.07A6.53,6.53,0,0,1,32.28,132.91Zm4.91-2.23a13.13,13.13,0,0,1-2.4-2.18,13.34,13.34,0,0,1-2.73-8.67h.22a6.54,6.54,0,0,1,4.91,10.86ZM76.07,88c1.62,18.72-2.2,40.85-2.89,43a3.23,3.23,0,0,1-3.14.52,3.3,3.3,0,0,1-2.1-3.28c.09-1.86-.38-4.27-3.12-5.18a4.56,4.56,0,0,0-3.59.38,3.37,3.37,0,0,0-1.64,2.25l-.06.32a8.81,8.81,0,0,1-1.33,3.79c-.39.6-1.06,1.11-3.19,1.75-3.44,1.05-9.63,2.92-15.65.33a9,9,0,0,0-7.08-14.47h-.12A46,46,0,0,1,36,103.63a17.47,17.47,0,0,1,3-4.47,18.25,18.25,0,0,1,4.25-3.4c.66-.41,16.23-10.14,19.21-12.64l.66-.54c.49-.41.87-.71,1.11-.9a30.16,30.16,0,0,0,2.46-2.24,29.32,29.32,0,0,0,3.44-4.62c.39-.6.73-1.13,1-1.5a5.73,5.73,0,0,1,.84-.91A50.54,50.54,0,0,1,76.07,88Z"/><circle id="_Path_8" data-name="&lt;Path&gt;" class="cls-2" cx="53.72" cy="76.2" r="1.66"/></g></svg>